<svg xmlns="http://www.w3.org/2000/svg" width="0" height="0" aria-hidden="true" display="none">

    <symbol id="bottom" viewBox="0 0 612.004 612.004">
        <path d="M499.147,160.094L330.222,329.019c-6.472,6.472-15.075,10.035-24.223,10.035c-9.146,0-17.749-3.561-24.218-10.035
			L112.854,160.094c-25.822-25.817-67.674-25.817-93.491,0c-25.817,25.819-25.817,67.674,0,93.491L188.29,422.508
			c31.443,31.445,73.245,48.764,117.712,48.764s86.269-17.319,117.714-48.761l168.925-168.925c25.817-25.817,25.817-67.674,0-93.491
			C566.822,134.277,524.962,134.277,499.147,160.094z"/>
    </symbol>

    <symbol id="facebook" viewBox="0 0 8 15">
        <path fill="#373f41" d="M8.077 0H5.874C4.9 0 3.967.395 3.278 1.098A3.791 3.791 0 0 0 2.203 3.75V6H0v3h2.203v6H5.14V9h2.203l.734-3H5.14V3.75c0-.199.077-.39.215-.53a.727.727 0 0 1 .52-.22h2.202z"/>
    </symbol>

    <symbol id="ok" viewBox="0 0 10 16">
        <path fill="#333" d="M.147 8.583c-.408.804.056 1.188 1.114 1.844.9.556 2.144.759 2.942.84l-3.147 3.028c-.916.878.559 2.286 1.474 1.427l2.478-2.39c.949.913 1.858 1.787 2.478 2.393.916.863 2.39-.534 1.484-1.427l-3.157-3.027c.808-.082 2.033-.297 2.922-.841 1.058-.66 1.522-1.043 1.12-1.847-.244-.456-.9-.837-1.773-.178 0 0-1.18.904-3.081.904-1.903 0-3.082-.904-3.082-.904-.872-.662-1.531-.278-1.772.178z"/><path fill="#333" d="M.79 4.052C.79 1.812 2.683 0 5.003 0 7.32 0 9.215 1.812 9.215 4.052c0 2.23-1.894 4.043-4.212 4.043C2.683 8.095.79 6.283.79 4.052zm2.144 0c0 1.096.93 1.99 2.069 1.99 1.139 0 2.068-.894 2.068-1.99 0-1.105-.929-2-2.068-2-1.14 0-2.07.894-2.069 2z"/>
    </symbol>

    <symbol id="insta" viewBox="0 0 15 15">
        <defs><clipPath id="4rm5a"><path fill="#fff" d="M11.33 0h-7.5A3.75 3.75 0 0 0 .08 3.75v7.5A3.75 3.75 0 0 0 3.83 15h7.5a3.75 3.75 0 0 0 3.75-3.75v-7.5A3.75 3.75 0 0 0 11.33 0z"/></clipPath><clipPath id="4rm5b"><path fill="#fff" d="M11.043 7.502a3.462 3.462 0 1 1-6.923 0 3.462 3.462 0 0 1 6.923 0z"/></clipPath></defs><g><g><g><path fill="none" stroke="#373f41" stroke-miterlimit="20" stroke-width="2.4" d="M11.33 0v0h-7.5A3.75 3.75 0 0 0 .08 3.75v7.5A3.75 3.75 0 0 0 3.83 15h7.5a3.75 3.75 0 0 0 3.75-3.75v-7.5A3.75 3.75 0 0 0 11.33 0z" clip-path="url(&quot;#4rm5a&quot;)"/></g><g><path fill="none" stroke="#373f41" stroke-miterlimit="20" stroke-width="2.4" d="M11.043 7.502a3.462 3.462 0 1 1-6.923 0 3.462 3.462 0 0 1 6.923 0z" clip-path="url(&quot;#4rm5b&quot;)"/></g><g><path fill="#373f41" d="M12.83 3a.75.75 0 1 1-1.5 0 .75.75 0 0 1 1.5 0z"/>
    </symbol>

</svg>  