<svg xmlns="http://www.w3.org/2000/svg" width="15" height="15" viewBox="0 0 15 15"><defs><clipPath id="4rm5a"><path fill="#fff" d="M11.33 0h-7.5A3.75 3.75 0 0 0 .08 3.75v7.5A3.75 3.75 0 0 0 3.83 15h7.5a3.75 3.75 0 0 0 3.75-3.75v-7.5A3.75 3.75 0 0 0 11.33 0z"/></clipPath><clipPath id="4rm5b"><path fill="#fff" d="M11.043 7.502a3.462 3.462 0 1 1-6.923 0 3.462 3.462 0 0 1 6.923 0z"/></clipPath></defs><g><g><g><path fill="none" stroke="#373f41" stroke-miterlimit="20" stroke-width="2.4" d="M11.33 0v0h-7.5A3.75 3.75 0 0 0 .08 3.75v7.5A3.75 3.75 0 0 0 3.83 15h7.5a3.75 3.75 0 0 0 3.75-3.75v-7.5A3.75 3.75 0 0 0 11.33 0z" clip-path="url(&quot;#4rm5a&quot;)"/></g><g><path fill="none" stroke="#373f41" stroke-miterlimit="20" stroke-width="2.4" d="M11.043 7.502a3.462 3.462 0 1 1-6.923 0 3.462 3.462 0 0 1 6.923 0z" clip-path="url(&quot;#4rm5b&quot;)"/></g><g><path fill="#373f41" d="M12.83 3a.75.75 0 1 1-1.5 0 .75.75 0 0 1 1.5 0z"/></g></g></g></svg>