<svg xmlns="http://www.w3.org/2000/svg" width="10" height="16" viewBox="0 0 10 16"><g><g><g/><g><path fill="#333" d="M.147 8.583c-.408.804.056 1.188 1.114 1.844.9.556 2.144.759 2.942.84l-3.147 3.028c-.916.878.559 2.286 1.474 1.427l2.478-2.39c.949.913 1.858 1.787 2.478 2.393.916.863 2.39-.534 1.484-1.427l-3.157-3.027c.808-.082 2.033-.297 2.922-.841 1.058-.66 1.522-1.043 1.12-1.847-.244-.456-.9-.837-1.773-.178 0 0-1.18.904-3.081.904-1.903 0-3.082-.904-3.082-.904-.872-.662-1.531-.278-1.772.178z"/></g><g><path fill="#333" d="M.79 4.052C.79 1.812 2.683 0 5.003 0 7.32 0 9.215 1.812 9.215 4.052c0 2.23-1.894 4.043-4.212 4.043C2.683 8.095.79 6.283.79 4.052zm2.144 0c0 1.096.93 1.99 2.069 1.99 1.139 0 2.068-.894 2.068-1.99 0-1.105-.929-2-2.068-2-1.14 0-2.07.894-2.069 2z"/></g></g></g></svg>